<?xml version="1.0" encoding="UTF-8" standalone="no"?>
<svg
   xmlns:dc="http://purl.org/dc/elements/1.1/"
   xmlns:cc="http://creativecommons.org/ns#"
   xmlns:rdf="http://www.w3.org/1999/02/22-rdf-syntax-ns#"
   xmlns:svg="http://www.w3.org/2000/svg"
   xmlns="http://www.w3.org/2000/svg"
   xmlns:sodipodi="http://sodipodi.sourceforge.net/DTD/sodipodi-0.dtd"
   xmlns:inkscape="http://www.inkscape.org/namespaces/inkscape"
   viewBox="0 0 512 512"
   version="1.1"
   id="svg4"
   sodipodi:docname="icon.svg"
   width="512"
   height="512"
   inkscape:version="0.92.4 (5da689c313, 2019-01-14)">
  <metadata
     id="metadata10">
    <rdf:RDF>
      <cc:Work
         rdf:about="">
        <dc:format>image/svg+xml</dc:format>
        <dc:type
           rdf:resource="http://purl.org/dc/dcmitype/StillImage" />
        <dc:title></dc:title>
      </cc:Work>
    </rdf:RDF>
  </metadata>
  <defs
     id="defs8" />
  <sodipodi:namedview
     pagecolor="#ffffff"
     bordercolor="#666666"
     borderopacity="1"
     objecttolerance="10"
     gridtolerance="10"
     guidetolerance="10"
     inkscape:pageopacity="0"
     inkscape:pageshadow="2"
     inkscape:window-width="1920"
     inkscape:window-height="1007"
     id="namedview6"
     showgrid="false"
     inkscape:snap-intersection-paths="true"
     inkscape:object-paths="true"
     inkscape:zoom="0.65186406"
     inkscape:cx="312.62658"
     inkscape:cy="185.28315"
     inkscape:window-x="0"
     inkscape:window-y="0"
     inkscape:window-maximized="1"
     inkscape:current-layer="svg4" />
  <g
     id="g836"
     transform="matrix(0.99179121,0,0,0.99071746,2.1248138,3.3740438)">
    <path
       sodipodi:nodetypes="ssccccccccssccssscscscccscsccscccssccsssss"
       inkscape:connector-curvature="0"
       style="fill:#ffffff;fill-opacity:1"
       id="path2"
       d="M 501.1,395.7 384,278.6 C 360.9,255.5 305.29995,241.1 277.49995,254.8 L 192,169.3 V 96 L 64,0 0,64 96,192 169.4,191.9 276,298.5 c -13.6,27.8 -20.5,62.4 2.6,85.5 l 117.1,117.1 c 14.6,14.6 38.2,14.6 52.7,0 l 52.7,-52.7 c 14.5,-14.6 14.5,-38.2 0,-52.7 z M 331.7,225 c 28.3,0 54.9,11 74.9,31 l 19.4,19.4 c 15.8,-6.9 30.8,-16.5 43.8,-29.5 37.1,-37.1 49.7,-89.3 37.9,-136.7 -2.2,-9 -13.5,-12.1 -20.1,-5.5 L 413.2,178.1 345.3,166.8 334,98.9 408.4,24.5 C 415,17.9 411.8,6.6 402.7,4.3 355.3,-7.4 303.1,5.2 266.1,42.2 237.6,70.7 224.2,108.3 224.9,145.8 l 82.1,82.1 c 8.1,-1.9 16.5,-2.9 24.7,-2.9 z M 227.8,307 171.1,250.3 18.7,402.8 c -25,25 -25,65.5 0,90.5 25,25 65.5,25 90.5,0 L 232.8,369.7 c -7.6,-19.9 -9.9,-41.6 -5,-62.7 z M 79.728814,456 c -13.2,0 -24,-10.8 -24,-24 0,-13.3 10.7,-24 24,-24 13.3,0 23.999996,10.7 23.999996,24 0,13.2 -10.699996,24 -23.999996,24 z" />
    <path
       sodipodi:nodetypes="ccsccccccccsssccccccccccccscscccssssssscccccccccscscccsccccccssssccscscccs"
       style="opacity:0.98999999;fill:#000000;fill-opacity:1"
       id="path2-3"
       d="m 502.59995,389.4 -124.4,-124.5 c -15.6,-15.6 -36.1,-23.4 -56.6,-23.4 -15.4,0 -30.8,4.4 -44.1,13.3 L 192,169.3 V 95.9 L 64,-0.099998 l -64,64 L 96,191.9 h 73.4 l 85.49995,85.5 c -20.6,31.1 -17.2,73.3 10.2,100.7 l 124.5,124.5 c 6.2,6.2 14.4,9.4 22.6,9.4 8.2,0 17.5822,4.72722 34.35847,-9.166 11.57104,-9.67467 47.45498,-46.24386 55.83259,-55.79975 C 517.77407,431.99357 515.09995,401.9 502.59995,389.4 Z M 160,158 v 1.9 H 112 L 42.3,66.900002 67,42.200002 160,111.9 Z m 252.09995,321.9 -124.4,-124.5 c -9.1,-9.1 -14.1,-21.1 -14.1,-33.9 0,-12.8 5,-24.9 14.1,-33.9 9.1,-9.1 21.1,-14.1 33.9,-14.1 12.8,0 24.9,5 33.9,14.1 l 124.5,124.4 z m -358.811815,-48 c 0,13.68135 8.555933,24.67796 25.627119,24.67796 17.613559,0 26.033896,-10.04746 26.033896,-26.44068 0,-12.18983 -7.606777,-23.32203 -26.033896,-23.32203 -14.901695,0 -25.627119,12.08136 -25.627119,25.08475 z M 276.79995,66.800002 c 22.7,-22.7 52.6,-34.9 83.8,-34.9 6.9,0 13.8,0.6 20.7,1.8 l -69.3,69.399998 13.8,83 83.1,13.8 69.3,-69.3 c 6.7,38.2 -5.3,76.8 -33.1,104.5 -8.9,8.9 -23.04997,19.94998 -33.94997,25.44998 L 426,275.4 c 15.00219,-2.5566 32.89995,-8.8 41.69995,-17.7 37.8,-37.8 55.07736,-93.0113 42.14068,-144.92712 -2.36338,-9.48443 -9.7,-16.999999 -19.1,-19.599999 -9.5,-2.6 -22.14068,1.627119 -29.14068,8.627119 l -63.9,63.9 -44.2,-7.4 -7.4,-44.2 63.9,-63.899998 c 6.9,-6.9 11.13406,-21.702187 8.53406,-31.102187 C 415.93401,9.5978155 406.41643,3.0648466 396.91643,0.66484657 345.21643,-12.235153 291.99995,6.400002 254.09995,44.200002 241.19995,57.100002 231.2,72.100002 224,88.2 l 0.9,57.6 21.86015,21.86015 c -9.6,-40.4 0.9398,-71.76015 30.0398,-100.860148 z M 107,467 c -16.448686,16.74995 -45.6,16.6 -62.2,0 -17.1,-17.1 -17.1,-45.1 0,-62.2 L 184.86102,264.06102 164.63898,243.55763 22.2,382.2 c -29.9970756,29.19752 -33.422116,81.07563 -3.822116,110.77563 14.3,14.3 28.001777,20.4159 48.301777,20.4159 C 86.979661,513.39153 115.3,504 129.6,489.6 L 239.12881,376.64576 c -6.7,-9.2 -9.03723,-20.72401 -12.73723,-31.22401 z"
       inkscape:connector-curvature="0" />
  </g>
</svg>
